<svg width="11" height="11" viewBox="0 0 11 11" fill="none" xmlns="http://www.w3.org/2000/svg">
<path d="M5.5 0C2.4673 0 0 2.4673 0 5.5C0 8.5327 2.4673 11 5.5 11C8.5327 11 11 8.5327 11 5.5C11 2.4673 8.5327 0 5.5 0ZM5.5 9.82969C3.11263 9.82969 1.17019 7.88748 1.17019 5.5C1.17019 3.11252 3.11263 1.17031 5.5 1.17031C7.88737 1.17031 9.82981 3.11252 9.82981 5.5C9.82981 7.88748 7.88737 9.82969 5.5 9.82969Z" fill="#333333"/>
<path d="M8.36645 5.33004H5.89474V2.35813C5.89474 2.10804 5.69197 1.90527 5.44187 1.90527C5.19178 1.90527 4.98901 2.10804 4.98901 2.35813V5.7829C4.98901 6.03299 5.19178 6.23576 5.44187 6.23576H8.36645C8.61655 6.23576 8.81931 6.03299 8.81931 5.7829C8.81931 5.53281 8.61655 5.33004 8.36645 5.33004Z" fill="#333333"/>
</svg>
