<svg width="10" height="10" viewBox="0 0 10 10" fill="none" xmlns="http://www.w3.org/2000/svg">
<path d="M9.58333 4.16667H6.04167C5.91667 4.16667 5.83333 4.08333 5.83333 3.95833V0.416667C5.83333 0.166667 5.66667 0 5.41667 0H4.58333C4.33333 0 4.16667 0.166667 4.16667 0.416667V3.95833C4.16667 4.08333 4.08333 4.16667 3.95833 4.16667H0.416667C0.166667 4.16667 0 4.33333 0 4.58333V5.41667C0 5.66667 0.166667 5.83333 0.416667 5.83333H3.95833C4.08333 5.83333 4.16667 5.91667 4.16667 6.04167V9.58333C4.16667 9.83333 4.33333 10 4.58333 10H5.41667C5.66667 10 5.83333 9.83333 5.83333 9.58333V6.04167C5.83333 5.91667 5.91667 5.83333 6.04167 5.83333H9.58333C9.83333 5.83333 10 5.66667 10 5.41667V4.58333C10 4.33333 9.83333 4.16667 9.58333 4.16667Z" fill="#333333"/>
</svg>
